<svg width="109" height="109" viewBox="0 0 109 109" fill="none" xmlns="http://www.w3.org/2000/svg">
<g clip-path="url(#clip0_44_4)">
<path d="M107.229 75.4488L99.0523 71.3823C95.7949 69.7216 94.0976 66.4642 94.0976 62.7602V46.4741C94.0976 43.0254 93.2677 39.5768 91.7342 36.4474L73.7283 4.39327C71.7898 0.18036 66.5458 -1.30322 62.6871 1.26976C59.6859 3.26977 58.5208 7.11344 59.9037 10.4432L77.5562 45.1327C77.6194 45.1327 77.5562 45.1967 77.6194 45.1967C77.9387 46.2179 78.1308 47.24 78.1308 48.3261V67.4862C78.1308 69.2742 76.3795 70.6796 74.5907 70.6796C72.8027 70.6796 71.7441 69.2742 71.7441 67.4862V54.7128C71.7441 51.1851 68.8851 48.3261 65.3574 48.3261C61.8297 48.3261 58.9707 51.1851 58.9707 54.7128V77.2301C58.9707 84.253 62.4667 90.7129 68.6372 94.0659L95.5396 108.681C95.9862 108.872 96.4336 109 96.9442 109C97.1504 109 97.3567 108.979 97.5588 108.939C98.6806 108.716 99.5954 107.9 99.9471 106.813L108.844 79.29C109.331 77.7865 108.643 76.1524 107.229 75.4488V75.4488Z" fill="#202142"/>
<path d="M43.6435 48.3299C40.1158 48.3299 37.2568 51.189 37.2568 54.7166V67.4901C37.2568 69.278 36.1982 70.6834 34.4102 70.6834C32.6214 70.6834 30.8701 69.278 30.8701 67.4901V48.3299C30.8701 47.2438 31.0622 46.2226 31.3815 45.2006C31.4447 45.2006 31.3815 45.1365 31.4447 45.1365L49.0972 10.447C50.4801 7.11728 49.3142 3.27361 46.3138 1.2736C42.4551 -1.29855 37.211 0.18503 35.2726 4.3971L17.2667 36.4504C15.7332 39.5798 14.9033 43.0293 14.9033 46.4779V62.7641C14.9033 66.468 13.206 69.7254 9.94857 71.3861L1.77224 75.4527C0.357685 76.1562 -0.330051 77.7895 0.156437 79.2938L9.05294 106.816C9.4047 107.904 10.3203 108.72 11.4413 108.943C11.6442 108.983 11.8505 109.004 12.0567 109.004C12.5673 109.004 13.0147 108.876 13.4613 108.684L40.3628 94.0689C46.5342 90.7167 50.0302 84.2569 50.0302 77.234V54.7166C50.0302 51.189 47.1712 48.3299 43.6435 48.3299Z" fill="#202142"/>
</g>
<defs>
<clipPath id="clip0_44_4">
<rect width="109" height="109" fill="white"/>
</clipPath>
</defs>
</svg>
