<svg width="410" height="117" viewBox="0 0 410 117" fill="none" xmlns="http://www.w3.org/2000/svg">
<g clip-path="url(#clip0_11_3)">
<path d="M148.478 75.5391C153.988 75.5391 158.264 74.0678 161.306 71.1252C164.347 68.1827 165.868 64.0392 165.868 58.6949C165.868 53.3824 164.347 49.2549 161.306 46.3123C158.264 43.3698 153.988 41.8985 148.478 41.8985H139.019C138.095 41.8985 137.37 42.153 136.845 42.662C136.319 43.1709 136.056 43.8867 136.056 44.8092V72.6283C136.056 73.5509 136.319 74.2666 136.845 74.7756C137.37 75.2846 138.095 75.5391 139.019 75.5391H148.478ZM148.096 70.5288H142.22V46.9088H148.096C155.836 46.9088 159.705 50.8375 159.705 58.6949C159.705 66.5842 155.836 70.5288 148.096 70.5288ZM182.494 75.9208C183.736 75.9208 185.042 75.7379 186.412 75.3721C187.781 75.0062 189.008 74.5211 190.09 73.9167C191.269 73.2487 191.858 72.4216 191.858 71.4354C191.858 70.7356 191.691 70.1789 191.357 69.7653C191.022 69.3518 190.584 69.145 190.043 69.145C189.597 69.145 188.896 69.3995 187.941 69.9085C186.953 70.3538 186.069 70.7037 185.289 70.9582C184.509 71.2127 183.609 71.34 182.59 71.34C180.583 71.34 179.054 70.823 178.003 69.7892C176.952 68.7553 176.331 67.1409 176.14 64.9459H190.234C191.444 64.9459 192.049 64.2619 192.049 62.894C192.049 60.6036 191.619 58.6154 190.759 56.9294C189.899 55.2434 188.689 53.9391 187.128 53.0166C185.568 52.0941 183.736 51.6328 181.634 51.6328C179.437 51.6328 177.47 52.1418 175.734 53.1597C173.998 54.1777 172.652 55.6092 171.697 57.4543C170.741 59.2993 170.264 61.4148 170.264 63.8007C170.264 67.5544 171.363 70.5129 173.56 72.6761C175.758 74.8392 178.736 75.9208 182.494 75.9208ZM186.937 61.7488H176.14C176.331 59.8401 176.912 58.3768 177.884 57.3588C178.855 56.3409 180.153 55.8319 181.778 55.8319C183.37 55.8319 184.612 56.3329 185.504 57.335C186.396 58.337 186.874 59.8083 186.937 61.7488ZM205.379 75.9208C208.373 75.9208 210.769 75.2687 212.569 73.9644C214.368 72.6601 215.268 70.9264 215.268 68.7632C215.268 67.4272 215.005 66.3297 214.48 65.4708C213.954 64.6119 213.086 63.8961 211.876 63.3235C210.666 62.7509 208.994 62.2419 206.86 61.7965C204.853 61.383 203.499 60.9694 202.799 60.5559C202.098 60.1423 201.748 59.5379 201.748 58.7426C201.748 57.9155 202.09 57.2634 202.775 56.7862C203.46 56.3091 204.391 56.0705 205.57 56.0705C206.557 56.0705 207.385 56.1898 208.054 56.4284C208.723 56.6669 209.519 57.0248 210.443 57.502C210.952 57.7883 211.374 58.003 211.709 58.1462C212.043 58.2893 212.386 58.3609 212.736 58.3609C213.246 58.3609 213.676 58.1462 214.026 57.7167C214.376 57.2873 214.551 56.7544 214.551 56.1182C214.551 55.0684 214.042 54.2254 213.023 53.5892C212.035 52.953 210.921 52.4678 209.678 52.1338C208.436 51.7998 207.146 51.6328 205.809 51.6328C203.961 51.6328 202.313 51.9429 200.864 52.5633C199.415 53.1836 198.276 54.0584 197.448 55.1877C196.62 56.317 196.206 57.5815 196.206 58.9812C196.206 60.8263 196.819 62.2737 198.045 63.3235C199.271 64.3733 201.302 65.1845 204.136 65.7571C205.729 66.107 206.915 66.4172 207.696 66.6875C208.476 66.9579 209.017 67.2522 209.32 67.5703C209.623 67.8884 209.774 68.3179 209.774 68.8587C209.774 69.654 209.4 70.2743 208.651 70.7197C207.903 71.165 206.86 71.3877 205.522 71.3877C204.216 71.3877 203.141 71.2604 202.297 71.006C201.453 70.7515 200.521 70.3856 199.502 69.9085C198.547 69.3995 197.798 69.145 197.257 69.145C196.747 69.145 196.317 69.3438 195.967 69.7414C195.616 70.1391 195.441 70.656 195.441 71.2923C195.441 72.4057 195.951 73.2646 196.97 73.869C199.104 75.2369 201.907 75.9208 205.379 75.9208ZM223.056 47.4814C224.138 47.4814 224.998 47.1871 225.635 46.5986C226.272 46.0101 226.591 45.2387 226.591 44.2843C226.591 43.33 226.264 42.5665 225.612 41.9939C224.959 41.4213 224.107 41.135 223.056 41.135C221.973 41.135 221.113 41.4213 220.476 41.9939C219.839 42.5665 219.52 43.33 219.52 44.2843C219.52 45.2387 219.839 46.0101 220.476 46.5986C221.113 47.1871 221.973 47.4814 223.056 47.4814ZM223.056 75.8254C223.915 75.8254 224.632 75.5789 225.205 75.0858C225.779 74.5927 226.065 73.8849 226.065 72.9624V54.5435C226.065 53.621 225.779 52.9212 225.205 52.444C224.632 51.9668 223.915 51.7282 223.056 51.7282C222.196 51.7282 221.487 51.9668 220.93 52.444C220.372 52.9212 220.093 53.621 220.093 54.5435V72.9624C220.093 73.8849 220.372 74.5927 220.93 75.0858C221.487 75.5789 222.196 75.8254 223.056 75.8254ZM242.882 84.5099C246.864 84.5099 249.873 83.5715 251.912 81.6946C253.95 79.8177 254.969 77.0501 254.969 73.3918V54.5435C254.969 53.6846 254.699 53.0007 254.157 52.4917C253.616 51.9827 252.899 51.7282 252.007 51.7282C251.116 51.7282 250.399 51.9827 249.858 52.4917C249.316 53.0007 249.045 53.6687 249.045 54.4958V55.7365C248.345 54.4322 247.325 53.4222 245.988 52.7064C244.65 51.9907 243.121 51.6328 241.401 51.6328C239.363 51.6328 237.547 52.1179 235.955 53.0882C234.362 54.0584 233.128 55.4263 232.252 57.1918C231.376 58.9574 230.938 60.9853 230.938 63.2758C230.938 65.5662 231.384 67.5862 232.276 69.3359C233.168 71.0855 234.402 72.4454 235.979 73.4157C237.555 74.3859 239.363 74.871 241.401 74.871C243.121 74.871 244.65 74.5132 245.988 73.7974C247.325 73.0817 248.345 72.0716 249.045 70.7674V73.8213C249.045 77.8931 246.959 79.9291 242.787 79.9291C241.608 79.9291 240.565 79.8018 239.657 79.5473C238.75 79.2928 237.723 78.927 236.576 78.4498C236.13 78.259 235.7 78.092 235.286 77.9488C234.872 77.8056 234.522 77.7341 234.235 77.7341C233.694 77.7341 233.256 77.9408 232.921 78.3544C232.587 78.7679 232.42 79.3246 232.42 80.0245C232.42 81.0107 233.009 81.8537 234.187 82.5535C236.512 83.8578 239.411 84.5099 242.882 84.5099ZM242.978 70.2425C241.099 70.2425 239.618 69.6222 238.535 68.3815C237.452 67.1409 236.91 65.4389 236.91 63.2758C236.91 61.0808 237.452 59.363 238.535 58.1223C239.618 56.8817 241.099 56.2614 242.978 56.2614C244.889 56.2614 246.378 56.8817 247.445 58.1223C248.512 59.363 249.045 61.0808 249.045 63.2758C249.045 65.4389 248.512 67.1409 247.445 68.3815C246.378 69.6222 244.889 70.2425 242.978 70.2425ZM280.052 75.8254C280.975 75.8254 281.7 75.5709 282.225 75.0619C282.751 74.5529 283.014 73.8531 283.014 72.9624V61.2239C283.014 58.011 282.329 55.6092 280.959 54.0186C279.59 52.4281 277.504 51.6328 274.701 51.6328C273.013 51.6328 271.5 51.9827 270.162 52.6826C268.824 53.3824 267.757 54.3845 266.961 55.6887V54.4004C266.961 53.6051 266.698 52.9609 266.173 52.4678C265.647 51.9748 264.97 51.7282 264.142 51.7282C263.219 51.7282 262.486 51.9827 261.945 52.4917C261.403 53.0007 261.133 53.6687 261.133 54.4958V72.9624C261.133 73.8531 261.395 74.5529 261.921 75.0619C262.446 75.5709 263.171 75.8254 264.095 75.8254C265.018 75.8254 265.751 75.5709 266.292 75.0619C266.834 74.5529 267.104 73.8531 267.104 72.9624V62.3214C267.104 60.5082 267.622 59.0608 268.657 57.9792C269.692 56.8976 271.07 56.3568 272.79 56.3568C274.255 56.3568 275.33 56.7703 276.015 57.5974C276.699 58.4245 277.042 59.7447 277.042 61.558V72.9624C277.042 73.8531 277.312 74.5529 277.854 75.0619C278.395 75.5709 279.128 75.8254 280.052 75.8254ZM314.975 75.5391C320.486 75.5391 324.761 74.0678 327.803 71.1252C330.845 68.1827 332.366 64.0392 332.366 58.6949C332.366 53.3824 330.845 49.2549 327.803 46.3123C324.761 43.3698 320.486 41.8985 314.975 41.8985H305.516C304.592 41.8985 303.868 42.153 303.342 42.662C302.817 43.1709 302.554 43.8867 302.554 44.8092V72.6283C302.554 73.5509 302.817 74.2666 303.342 74.7756C303.868 75.2846 304.592 75.5391 305.516 75.5391H314.975ZM314.593 70.5288H308.717V46.9088H314.593C322.333 46.9088 326.203 50.8375 326.203 58.6949C326.203 66.5842 322.333 70.5288 314.593 70.5288ZM345.504 75.9208C347.033 75.9208 348.378 75.5709 349.541 74.871C350.703 74.1712 351.555 73.2009 352.097 71.9603V73.0101C352.097 73.8372 352.36 74.5052 352.885 75.0142C353.411 75.5232 354.088 75.7777 354.916 75.7777C355.808 75.7777 356.508 75.5311 357.018 75.0381C357.527 74.545 357.782 73.869 357.782 73.0101V61.3671C357.782 58.0905 356.994 55.649 355.417 54.0425C353.841 52.436 351.428 51.6328 348.179 51.6328C346.682 51.6328 345.162 51.8077 343.617 52.1577C342.072 52.5076 340.742 52.9848 339.628 53.5892C338.991 53.9391 338.537 54.3129 338.266 54.7105C337.995 55.1082 337.86 55.5774 337.86 56.1182C337.86 56.7862 338.043 57.327 338.409 57.7406C338.776 58.1541 339.245 58.3609 339.819 58.3609C340.201 58.3609 340.806 58.1541 341.634 57.7406C342.94 57.2316 344.071 56.8419 345.026 56.5715C345.982 56.3011 346.921 56.1659 347.845 56.1659C349.342 56.1659 350.425 56.5238 351.094 57.2395C351.763 57.9553 352.097 59.0926 352.097 60.6513V61.7488H350.903C347.431 61.7488 344.708 61.9715 342.733 62.4169C340.758 62.8622 339.333 63.578 338.457 64.5641C337.581 65.5503 337.143 66.9023 337.143 68.6201C337.143 69.988 337.51 71.2286 338.242 72.342C338.975 73.4554 339.978 74.3302 341.252 74.9665C342.526 75.6027 343.943 75.9208 345.504 75.9208ZM346.698 71.6263C345.647 71.6263 344.763 71.3002 344.047 70.6481C343.33 69.9959 342.972 69.1609 342.972 68.1429C342.972 67.3158 343.227 66.6637 343.736 66.1865C344.246 65.7094 345.09 65.3753 346.268 65.1845C347.447 64.9936 349.103 64.8982 351.237 64.8982H352.097V65.9002C352.097 67.5862 351.595 68.9621 350.592 70.0277C349.589 71.0934 348.291 71.6263 346.698 71.6263ZM366.812 47.4814C367.895 47.4814 368.755 47.1871 369.392 46.5986C370.029 46.0101 370.347 45.2387 370.347 44.2843C370.347 43.33 370.021 42.5665 369.368 41.9939C368.715 41.4213 367.863 41.135 366.812 41.135C365.729 41.135 364.869 41.4213 364.232 41.9939C363.595 42.5665 363.276 43.33 363.276 44.2843C363.276 45.2387 363.595 46.0101 364.232 46.5986C364.869 47.1871 365.729 47.4814 366.812 47.4814ZM366.812 75.8254C367.672 75.8254 368.388 75.5789 368.962 75.0858C369.535 74.5927 369.822 73.8849 369.822 72.9624V54.5435C369.822 53.621 369.535 52.9212 368.962 52.444C368.388 51.9668 367.672 51.7282 366.812 51.7282C365.952 51.7282 365.243 51.9668 364.686 52.444C364.128 52.9212 363.85 53.621 363.85 54.5435V72.9624C363.85 73.8849 364.128 74.5927 364.686 75.0858C365.243 75.5789 365.952 75.8254 366.812 75.8254ZM378.947 75.8254C379.807 75.8254 380.523 75.5789 381.097 75.0858C381.67 74.5927 381.957 73.8849 381.957 72.9624V44.4752C381.957 43.5527 381.67 42.8528 381.097 42.3757C380.523 41.8985 379.807 41.6599 378.947 41.6599C378.087 41.6599 377.378 41.8985 376.821 42.3757C376.263 42.8528 375.985 43.5527 375.985 44.4752V72.9624C375.985 73.8849 376.263 74.5927 376.821 75.0858C377.378 75.5789 378.087 75.8254 378.947 75.8254ZM393.853 84.3668C394.999 84.3668 395.843 83.826 396.385 82.7444L409.427 55.4502C409.619 55.0684 409.714 54.7026 409.714 54.3527C409.714 53.621 409.419 53.0086 408.83 52.5156C408.241 52.0225 407.58 51.7759 406.848 51.7759C406.338 51.7759 405.868 51.9111 405.438 52.1815C405.008 52.4519 404.666 52.8734 404.411 53.446L397.77 68.1429L391.082 53.3983C390.827 52.8257 390.477 52.4042 390.031 52.1338C389.585 51.8634 389.091 51.7282 388.55 51.7282C387.753 51.7282 387.045 51.9827 386.424 52.4917C385.802 53.0007 385.492 53.621 385.492 54.3527C385.492 54.7662 385.572 55.132 385.731 55.4502L394.617 73.9167L391.368 80.7403C391.177 81.1856 391.082 81.5833 391.082 81.9332C391.082 82.633 391.36 83.2136 391.918 83.6749C392.475 84.1361 393.12 84.3668 393.853 84.3668Z" fill="#242E4C"/>
<path d="M6.47216 22.6164C21.8238 -3.94098 62.4035 -5.23195 88.9933 10.101C115.583 25.4339 124.694 59.3927 109.342 85.9501C93.9902 112.508 58.2527 125.142 31.6628 109.809C5.07301 94.4758 -8.87949 49.1738 6.47216 22.6164ZM64.5584 38.9704C63.4668 38.9704 62.601 39.2994 61.9611 39.9573C61.4127 40.5212 61.0992 41.244 61.0209 42.1255L61.0013 42.5795V63.3322C61.0013 66.7157 60.192 69.291 58.5734 71.058C56.9549 72.825 54.6023 73.7085 51.5157 73.7085C48.3915 73.7085 46.0201 72.8344 44.4015 71.0862C42.9074 69.4725 42.1029 67.146 41.988 64.1068L41.9736 63.3322V42.5795C41.9736 41.4893 41.6537 40.6152 41.0138 39.9573C40.3739 39.2994 39.5081 38.9704 38.4165 38.9704C37.3249 38.9704 36.4592 39.2994 35.8193 39.9573C35.2708 40.5212 34.9574 41.244 34.879 42.1255L34.8594 42.5795V62.9374C34.8594 68.3511 36.271 72.4678 39.0941 75.2875C41.9172 78.1071 46.0577 79.517 51.5157 79.517C56.936 79.517 61.0577 78.0977 63.8808 75.2593C66.5379 72.5878 67.9445 68.7924 68.1008 63.873L68.1155 62.9374V42.5795C68.1155 41.4893 67.7955 40.6152 67.1556 39.9573C66.5157 39.2994 65.65 38.9704 64.5584 38.9704ZM80.0854 38.9704C78.9938 38.9704 78.1186 39.2994 77.4599 39.9573C76.8953 40.5212 76.5727 41.244 76.492 42.1255L76.4718 42.5795V75.6822C76.4718 76.7725 76.8012 77.656 77.4599 78.3327C78.1186 79.0094 78.9938 79.3478 80.0854 79.3478C81.2146 79.3478 82.1086 79.0094 82.7673 78.3327C83.332 77.7527 83.6546 77.0207 83.7353 76.1368L83.7554 75.6822V42.5795C83.7554 41.4893 83.4261 40.6152 82.7673 39.9573C82.1086 39.2994 81.2146 38.9704 80.0854 38.9704Z" fill="#242E4C"/>
</g>
<defs>
<clipPath id="clip0_11_3">
<rect width="410" height="117" fill="white"/>
</clipPath>
</defs>
</svg>
